<svg width="422" height="214" viewBox="0 0 422 214" fill="none" xmlns="http://www.w3.org/2000/svg">
<g filter="url(#filter0_d_44_25)">
<path d="M42.0032 166.05C36.3032 166.05 31.4032 164.85 27.3032 162.45C23.3032 160.05 21.3032 156.55 21.3032 151.95C21.3032 149.35 22.0032 147.05 23.4032 145.05C24.9032 143.15 27.2032 141.7 30.3032 140.7C29.9032 142.2 29.6032 143.65 29.4032 145.05C29.2032 146.45 29.1032 147.7 29.1032 148.8C29.1032 152.9 30.2032 156.15 32.4032 158.55C34.6032 161.05 37.8532 162.3 42.1532 162.3C46.1532 162.3 49.7032 161.3 52.8032 159.3C56.0032 157.3 58.7532 154.65 61.0532 151.35C63.3532 148.15 65.3032 144.65 66.9032 140.85C68.5032 137.05 69.8532 133.3 70.9532 129.6C72.0532 125.9 72.9032 122.65 73.5032 119.85C74.3032 116.45 75.2032 112.05 76.2032 106.65C77.3032 101.15 78.5032 95.3 79.8032 89.1C75.8032 96.7 71.1532 103 65.8532 108C60.6532 112.9 54.4532 115.35 47.2532 115.35C41.3532 115.35 37.1532 113.7 34.6532 110.4C32.1532 107 30.9032 102.7 30.9032 97.5C30.9032 93.6 31.4032 89.35 32.4032 84.75C33.5032 80.15 34.7032 75.55 36.0032 70.95C37.3032 66.25 38.4532 61.75 39.4532 57.45C40.5532 53.15 41.1032 49.3 41.1032 45.9C41.1032 42.7 40.4532 39.95 39.1532 37.65C37.9532 35.35 35.7532 34.2 32.5532 34.2C29.7532 34.2 27.3532 35.1 25.3532 36.9C23.3532 38.6 21.6532 40.8 20.2532 43.5C18.9532 46.2 17.9532 49.05 17.2532 52.05C16.6532 54.95 16.3532 57.65 16.3532 60.15C16.3532 61.55 16.4532 62.9 16.6532 64.2C16.8532 65.5 17.1532 66.6 17.5532 67.5C13.7532 67.5 11.0532 66.5 9.45317 64.5C7.95317 62.4 7.20317 59.95 7.20317 57.15C7.20317 54.05 7.95317 50.9 9.45317 47.7C10.9532 44.5 13.0032 41.6 15.6032 39C18.3032 36.3 21.3532 34.15 24.7532 32.55C28.2532 30.85 31.9532 30 35.8532 30C39.6532 30 42.7032 30.8 45.0032 32.4C47.3032 33.9 48.9532 35.8 49.9532 38.1C50.9532 40.4 51.4532 42.75 51.4532 45.15C51.4532 47.95 50.9032 51.45 49.8032 55.65C48.8032 59.75 47.6532 64.1 46.3532 68.7C45.0532 73.2 43.9032 77.7 42.9032 82.2C41.9032 86.7 41.4032 90.95 41.4032 94.95C41.4032 99.25 42.2032 102.75 43.8032 105.45C45.5032 108.05 48.2032 109.35 51.9032 109.35C55.4032 109.35 58.7032 108.25 61.8032 106.05C64.9032 103.85 67.8032 100.9 70.5032 97.2C73.2032 93.5 75.6532 89.45 77.8532 85.05C80.0532 80.65 82.0032 76.3 83.7032 72C85.0032 66.6 86.3532 61.4 87.7532 56.4C89.2532 51.3 90.7532 46.8 92.2532 42.9C93.7532 38.9 95.3032 35.75 96.9032 33.45C98.5032 31.15 100.103 30 101.703 30C102.703 30 104.003 30.45 105.603 31.35C107.203 32.15 108.703 33.3 110.103 34.8C108.003 38.1 106.203 41.25 104.703 44.25C103.203 47.15 101.753 50.35 100.353 53.85C99.0532 57.35 97.7032 61.5 96.3032 66.3C94.9032 71 93.3032 76.8 91.5032 83.7C89.8032 90.6 87.7532 99 85.3532 108.9C84.0532 114 82.6532 119.25 81.1532 124.65C79.6532 130.05 77.8032 135.2 75.6032 140.1C73.5032 145 70.9532 149.4 67.9532 153.3C64.9532 157.2 61.3032 160.3 57.0032 162.6C52.8032 164.9 47.8032 166.05 42.0032 166.05ZM119.036 142.5C115.636 142.5 112.886 141 110.786 138C108.786 134.9 107.786 131.35 107.786 127.35C107.786 124.45 108.236 121.1 109.136 117.3C110.136 113.5 111.336 109.75 112.736 106.05C114.136 102.35 115.586 99.3 117.086 96.9C118.586 94.5 119.886 93.3 120.986 93.3C121.486 93.3 122.336 93.6 123.536 94.2C124.736 94.7 125.736 95.4 126.536 96.3C125.436 98 124.086 100.6 122.486 104.1C120.886 107.6 119.486 111.35 118.286 115.35C117.086 119.35 116.486 123.05 116.486 126.45C116.486 127.25 116.586 128.5 116.786 130.2C116.986 131.8 117.486 133.25 118.286 134.55C119.086 135.85 120.286 136.5 121.886 136.5C123.786 136.5 125.736 135.55 127.736 133.65C129.736 131.65 131.736 129.1 133.736 126C135.836 122.9 137.836 119.55 139.736 115.95C141.636 112.35 143.386 108.9 144.986 105.6C146.686 102.3 148.086 99.55 149.186 97.35C149.786 97.45 150.636 97.65 151.736 97.95C152.936 98.25 153.986 98.65 154.886 99.15C155.886 99.65 156.386 100.35 156.386 101.25C156.386 101.65 155.886 103 154.886 105.3C153.886 107.5 152.686 110.25 151.286 113.55C149.986 116.75 148.836 120 147.836 123.3C146.836 126.6 146.336 129.5 146.336 132C146.336 133.8 146.686 135.25 147.386 136.35C148.186 137.45 149.486 138 151.286 138C153.386 138 155.936 137.05 158.936 135.15C161.936 133.25 164.986 130.5 168.086 126.9C171.186 123.2 173.936 118.8 176.336 113.7L178.286 115.05C176.186 120.45 173.436 125.25 170.036 129.45C166.636 133.55 163.036 136.75 159.236 139.05C155.436 141.35 151.736 142.5 148.136 142.5C145.536 142.5 143.436 142 141.836 141C140.336 140 139.236 138.65 138.536 136.95C137.936 135.25 137.636 133.4 137.636 131.4C137.636 130.2 137.736 129 137.936 127.8C138.136 126.5 138.386 125.2 138.686 123.9C136.886 127.2 134.936 130.3 132.836 133.2C130.736 136 128.536 138.25 126.236 139.95C123.936 141.65 121.536 142.5 119.036 142.5ZM256.658 142.65C253.158 142.65 250.608 141.55 249.008 139.35C247.408 137.25 246.608 134.7 246.608 131.7C246.608 129.2 246.958 126.7 247.658 124.2C248.458 121.7 249.208 119.25 249.908 116.85C250.708 114.45 251.108 112.3 251.108 110.4C251.108 108.4 250.658 107 249.758 106.2C248.858 105.4 247.858 105 246.758 105C244.258 105 241.508 106.95 238.508 110.85C235.608 114.75 231.808 120.25 227.108 127.35C225.508 129.75 224.158 132.2 223.058 134.7C221.958 137.1 220.908 139.3 219.908 141.3C219.108 141.3 218.108 141.2 216.908 141C215.708 140.8 214.608 140.45 213.608 139.95C212.708 139.55 212.258 139 212.258 138.3C212.258 137.6 212.708 135.95 213.608 133.35C214.608 130.65 215.708 127.55 216.908 124.05C218.208 120.45 219.308 116.85 220.208 113.25C221.208 109.55 221.708 106.4 221.708 103.8C221.708 102.1 221.408 100.75 220.808 99.75C220.308 98.65 219.358 98.1 217.958 98.1C215.758 98.1 213.108 99.45 210.008 102.15C206.908 104.75 203.708 108.2 200.408 112.5C197.108 116.8 193.958 121.55 190.958 126.75C188.058 131.85 185.708 136.95 183.908 142.05C183.008 142.05 181.908 141.9 180.608 141.6C179.308 141.3 178.208 140.9 177.308 140.4C176.308 139.9 175.808 139.4 175.808 138.9C175.808 138.3 176.358 136.55 177.458 133.65C178.458 130.65 179.658 127.1 181.058 123C182.358 118.8 183.508 114.55 184.508 110.25C185.608 105.95 186.158 102.15 186.158 98.85C186.758 98.15 187.708 97.45 189.008 96.75C190.308 96.05 191.658 95.7 193.058 95.7C194.458 95.7 195.458 96.05 196.058 96.75C196.758 97.45 197.108 98.4 197.108 99.6C197.108 100.9 196.708 103.15 195.908 106.35C195.208 109.45 194.308 112.9 193.208 116.7C195.208 113.5 197.458 110.25 199.958 106.95C202.558 103.55 205.258 100.45 208.058 97.65C210.858 94.85 213.658 92.6 216.458 90.9C219.358 89.1 222.158 88.2 224.858 88.2C227.958 88.2 230.058 89.35 231.158 91.65C232.358 93.85 232.958 96.5 232.958 99.6C232.958 102.1 232.658 104.75 232.058 107.55C231.558 110.25 230.958 112.8 230.258 115.2C229.558 117.5 228.908 119.35 228.308 120.75C230.408 116.95 232.708 113.3 235.208 109.8C237.808 106.2 240.608 103.3 243.608 101.1C246.608 98.8 249.808 97.65 253.208 97.65C256.408 97.65 258.608 98.6 259.808 100.5C261.108 102.4 261.758 104.65 261.758 107.25C261.758 109.85 261.308 112.7 260.408 115.8C259.508 118.9 258.558 121.9 257.558 124.8C256.658 127.7 256.208 130.2 256.208 132.3C256.208 133.6 256.508 134.8 257.108 135.9C257.808 136.9 259.008 137.4 260.708 137.4C263.508 137.4 266.108 136.15 268.508 133.65C271.008 131.05 273.308 127.95 275.408 124.35C277.508 120.65 279.308 117.1 280.808 113.7L282.608 115.8C281.008 120 278.958 124.2 276.458 128.4C273.958 132.5 271.008 135.9 267.608 138.6C264.308 141.3 260.658 142.65 256.658 142.65ZM301.731 144.6C295.631 144.6 291.031 142.9 287.931 139.5C284.931 136.2 283.431 132.1 283.431 127.2C283.431 122.7 284.531 117.95 286.731 112.95C289.031 107.95 292.031 103.25 295.731 98.85C299.531 94.45 303.681 90.9 308.181 88.2C312.681 85.4 317.131 84 321.531 84C323.831 84 325.931 84.6 327.831 85.8C329.831 87 330.831 89.45 330.831 93.15C330.831 96.95 329.681 100.55 327.381 103.95C325.181 107.25 322.231 110.2 318.531 112.8C314.931 115.4 310.931 117.55 306.531 119.25C302.231 120.85 297.931 121.85 293.631 122.25C293.431 123.25 293.281 124.2 293.181 125.1C293.081 126 293.031 126.85 293.031 127.65C293.031 129.15 293.181 130.65 293.481 132.15C293.881 133.65 294.531 135.05 295.431 136.35C296.331 137.55 297.531 138.5 299.031 139.2C300.631 139.9 302.581 140.25 304.881 140.25C309.181 140.25 313.431 139.05 317.631 136.65C321.831 134.15 325.731 130.9 329.331 126.9C332.931 122.9 335.981 118.5 338.481 113.7L340.281 115.05C337.581 121.05 334.131 126.25 329.931 130.65C325.831 135.05 321.331 138.45 316.431 140.85C311.631 143.35 306.731 144.6 301.731 144.6ZM294.381 119.4C297.081 118.5 300.131 117.2 303.531 115.5C306.931 113.7 310.181 111.6 313.281 109.2C316.481 106.8 319.081 104.15 321.081 101.25C323.181 98.35 324.231 95.3 324.231 92.1C324.231 91 324.031 90.15 323.631 89.55C323.231 88.95 322.381 88.65 321.081 88.65C318.681 88.65 316.131 89.6 313.431 91.5C310.731 93.3 308.131 95.7 305.631 98.7C303.131 101.7 300.881 105 298.881 108.6C296.881 112.2 295.381 115.8 294.381 119.4Z" fill="white"/>
</g>
<path d="M174.381 180V159H182.931C185.171 159 187.131 159.45 188.811 160.35C190.511 161.23 191.831 162.46 192.771 164.04C193.711 165.62 194.181 167.44 194.181 169.5C194.181 171.56 193.711 173.38 192.771 174.96C191.831 176.54 190.511 177.78 188.811 178.68C187.131 179.56 185.171 180 182.931 180H174.381ZM176.601 178.08H182.811C184.671 178.08 186.281 177.72 187.641 177C189.021 176.26 190.091 175.25 190.851 173.97C191.611 172.67 191.991 171.18 191.991 169.5C191.991 167.8 191.611 166.31 190.851 165.03C190.091 163.75 189.021 162.75 187.641 162.03C186.281 161.29 184.671 160.92 182.811 160.92H176.601V178.08ZM202.646 168.39H213.746V170.28H202.646V168.39ZM202.886 178.08H215.516V180H200.666V159H215.066V160.92H202.886V178.08ZM222.234 180V159H224.454V178.08H236.214V180H222.234ZM241.4 180V159H243.62V180H241.4ZM257.689 180L248.389 159H250.789L259.489 178.77H258.169L266.929 159H269.179L259.879 180H257.689ZM275.706 168.39H286.806V170.28H275.706V168.39ZM275.946 178.08H288.576V180H273.726V159H288.126V160.92H275.946V178.08ZM295.295 180V159H303.155C304.935 159 306.465 159.29 307.745 159.87C309.025 160.43 310.005 161.25 310.685 162.33C311.385 163.39 311.735 164.68 311.735 166.2C311.735 167.68 311.385 168.96 310.685 170.04C310.005 171.1 309.025 171.92 307.745 172.5C306.465 173.06 304.935 173.34 303.155 173.34H296.525L297.515 172.32V180H295.295ZM309.635 180L304.235 172.38H306.635L312.065 180H309.635ZM297.515 172.5L296.525 171.45H303.095C305.195 171.45 306.785 170.99 307.865 170.07C308.965 169.15 309.515 167.86 309.515 166.2C309.515 164.52 308.965 163.22 307.865 162.3C306.785 161.38 305.195 160.92 303.095 160.92H296.525L297.515 159.87V172.5ZM323.191 180V172.2L323.701 173.58L314.791 159H317.161L324.991 171.81H323.731L331.561 159H333.781L324.871 173.58L325.381 172.2V180H323.191Z" fill="black"/>
<defs>
<filter id="filter0_d_44_25" x="3.20319" y="30" width="341.077" height="144.05" filterUnits="userSpaceOnUse" color-interpolation-filters="sRGB">
<feFlood flood-opacity="0" result="BackgroundImageFix"/>
<feColorMatrix in="SourceAlpha" type="matrix" values="0 0 0 0 0 0 0 0 0 0 0 0 0 0 0 0 0 0 127 0" result="hardAlpha"/>
<feOffset dy="4"/>
<feGaussianBlur stdDeviation="2"/>
<feComposite in2="hardAlpha" operator="out"/>
<feColorMatrix type="matrix" values="0 0 0 0 0 0 0 0 0 0 0 0 0 0 0 0 0 0 0.25 0"/>
<feBlend mode="normal" in2="BackgroundImageFix" result="effect1_dropShadow_44_25"/>
<feBlend mode="normal" in="SourceGraphic" in2="effect1_dropShadow_44_25" result="shape"/>
</filter>
</defs>
</svg>
